<mxfile host="app.diagrams.net" modified="2021-04-06T08:56:30.526Z" agent="5.0 (Windows NT 10.0; Win64; x64) AppleWebKit/537.36 (KHTML, like Gecko) Chrome/89.0.4389.114 Safari/537.36 Edg/89.0.774.68" etag="5-oFNnNtCe0unlR3mA05" version="14.5.7" type="github">
  <diagram id="DFWtS3ax6X5nvFZESajV" name="Page-1">
    <mxGraphModel dx="1052" dy="554" grid="1" gridSize="10" guides="1" tooltips="1" connect="1" arrows="1" fold="1" page="1" pageScale="1" pageWidth="827" pageHeight="1169" math="0" shadow="0">
      <root>
        <mxCell id="0" />
        <mxCell id="1" parent="0" />
        <mxCell id="-f4Z_TBSMjOKZVasVj8e-3" value="" style="edgeStyle=none;rounded=0;orthogonalLoop=1;jettySize=auto;html=1;" edge="1" parent="1" source="-f4Z_TBSMjOKZVasVj8e-1" target="-f4Z_TBSMjOKZVasVj8e-2">
          <mxGeometry relative="1" as="geometry" />
        </mxCell>
        <mxCell id="-f4Z_TBSMjOKZVasVj8e-1" value="用户登录" style="rounded=0;whiteSpace=wrap;html=1;" vertex="1" parent="1">
          <mxGeometry x="20" y="60" width="120" height="60" as="geometry" />
        </mxCell>
        <mxCell id="-f4Z_TBSMjOKZVasVj8e-6" value="" style="edgeStyle=none;rounded=0;orthogonalLoop=1;jettySize=auto;html=1;" edge="1" parent="1" source="-f4Z_TBSMjOKZVasVj8e-2" target="-f4Z_TBSMjOKZVasVj8e-4">
          <mxGeometry relative="1" as="geometry" />
        </mxCell>
        <mxCell id="-f4Z_TBSMjOKZVasVj8e-2" value="综窗系统" style="rounded=0;whiteSpace=wrap;html=1;fillColor=#dae8fc;strokeColor=#6c8ebf;" vertex="1" parent="1">
          <mxGeometry x="270" y="60" width="120" height="60" as="geometry" />
        </mxCell>
        <mxCell id="-f4Z_TBSMjOKZVasVj8e-13" value="" style="edgeStyle=none;rounded=0;orthogonalLoop=1;jettySize=auto;html=1;entryX=0.75;entryY=0;entryDx=0;entryDy=0;exitX=0.75;exitY=1;exitDx=0;exitDy=0;" edge="1" parent="1" source="-f4Z_TBSMjOKZVasVj8e-4" target="-f4Z_TBSMjOKZVasVj8e-12">
          <mxGeometry relative="1" as="geometry">
            <mxPoint x="360" y="310" as="sourcePoint" />
            <Array as="points">
              <mxPoint x="360" y="340" />
            </Array>
          </mxGeometry>
        </mxCell>
        <mxCell id="-f4Z_TBSMjOKZVasVj8e-16" value="" style="edgeStyle=none;rounded=0;orthogonalLoop=1;jettySize=auto;html=1;entryX=0;entryY=0.5;entryDx=0;entryDy=0;shape=link;dashed=1;" edge="1" parent="1" source="-f4Z_TBSMjOKZVasVj8e-4" target="-f4Z_TBSMjOKZVasVj8e-7">
          <mxGeometry relative="1" as="geometry" />
        </mxCell>
        <mxCell id="-f4Z_TBSMjOKZVasVj8e-25" value="" style="edgeStyle=none;rounded=0;orthogonalLoop=1;jettySize=auto;html=1;" edge="1" parent="1" source="-f4Z_TBSMjOKZVasVj8e-4" target="-f4Z_TBSMjOKZVasVj8e-23">
          <mxGeometry relative="1" as="geometry" />
        </mxCell>
        <mxCell id="-f4Z_TBSMjOKZVasVj8e-4" value="外链功能模块" style="rounded=0;whiteSpace=wrap;html=1;" vertex="1" parent="1">
          <mxGeometry x="270" y="240" width="120" height="60" as="geometry" />
        </mxCell>
        <mxCell id="-f4Z_TBSMjOKZVasVj8e-7" value="用户名&lt;br&gt;密码&lt;br&gt;所属部门&lt;br&gt;公钥AES对称加密" style="ellipse;whiteSpace=wrap;html=1;" vertex="1" parent="1">
          <mxGeometry x="570" y="210" width="120" height="120" as="geometry" />
        </mxCell>
        <mxCell id="-f4Z_TBSMjOKZVasVj8e-10" value="点击嵌入登录对接的第三方系统功能模块" style="text;html=1;align=center;verticalAlign=middle;resizable=0;points=[];autosize=1;" vertex="1" parent="1">
          <mxGeometry x="330" y="170" width="230" height="20" as="geometry" />
        </mxCell>
        <mxCell id="-f4Z_TBSMjOKZVasVj8e-11" value="包含基础信息" style="text;html=1;align=center;verticalAlign=middle;resizable=0;points=[];autosize=1;" vertex="1" parent="1">
          <mxGeometry x="425" y="240" width="90" height="20" as="geometry" />
        </mxCell>
        <mxCell id="-f4Z_TBSMjOKZVasVj8e-12" value="第三方登录系统" style="rounded=0;whiteSpace=wrap;html=1;" vertex="1" parent="1">
          <mxGeometry x="270" y="370" width="120" height="60" as="geometry" />
        </mxCell>
        <mxCell id="-f4Z_TBSMjOKZVasVj8e-17" value="传递基础登录信息" style="text;html=1;align=center;verticalAlign=middle;resizable=0;points=[];autosize=1;" vertex="1" parent="1">
          <mxGeometry x="380" y="320" width="110" height="20" as="geometry" />
        </mxCell>
        <mxCell id="-f4Z_TBSMjOKZVasVj8e-19" value="" style="edgeStyle=none;rounded=0;orthogonalLoop=1;jettySize=auto;html=1;entryX=0.75;entryY=0;entryDx=0;entryDy=0;exitX=0.75;exitY=1;exitDx=0;exitDy=0;" edge="1" parent="1">
          <mxGeometry relative="1" as="geometry">
            <mxPoint x="300" y="370" as="sourcePoint" />
            <mxPoint x="300" y="300" as="targetPoint" />
            <Array as="points" />
          </mxGeometry>
        </mxCell>
        <mxCell id="-f4Z_TBSMjOKZVasVj8e-20" value="返回登录成功信息" style="text;html=1;align=center;verticalAlign=middle;resizable=0;points=[];autosize=1;" vertex="1" parent="1">
          <mxGeometry x="165" y="320" width="110" height="20" as="geometry" />
        </mxCell>
        <mxCell id="-f4Z_TBSMjOKZVasVj8e-23" value="跳转第三方系统" style="rounded=0;whiteSpace=wrap;html=1;" vertex="1" parent="1">
          <mxGeometry x="20" y="240" width="120" height="60" as="geometry" />
        </mxCell>
        <mxCell id="-f4Z_TBSMjOKZVasVj8e-26" value="输入用户名密码登录" style="text;html=1;align=center;verticalAlign=middle;resizable=0;points=[];autosize=1;" vertex="1" parent="1">
          <mxGeometry x="140" y="60" width="120" height="20" as="geometry" />
        </mxCell>
      </root>
    </mxGraphModel>
  </diagram>
</mxfile>
